/* XPM */
static char *_566dc8610f44a15c6b32e872eae4055Tn2iwdIHOo3zFfvh[] = {
/* columns rows colors chars-per-pixel */
"32 32 19 1 ",
"  c black",
". c #1D191B",
"X c #241F21",
"o c #2A2628",
"O c #282828",
"+ c #322E30",
"@ c gray22",
"# c #684030",
"$ c #B01000",
"% c #F87030",
"& c #E83040",
"* c #C8B828",
"= c #F8A030",
"- c #C88048",
"; c #889098",
": c #F0C088",
"> c #D8F888",
", c #A8C0D8",
"< c #F8F8F8",
/* pixels */
"oXXooooXXXooooo.XXooooXoXXoooooX",
"oooXoooXXoooooo.ooXoooXoooXooooX",
"oooooooXooooooo.ooooooXooooooooX",
"oooooooXooooooo$$$$$ooXooooooooX",
"ooooooo.$oooo$$=====$+.ooooooooX",
"oo++++o$=$oo$==&&==$o+.++++++++.",
"XXXXXXX$==$$==&&&==$$+.XXXXXXXX.",
"ooXXX#$====$=&&&&&$=$.$$$$oooXoo",
"oooX#=$=&===&&&&&&$=$$===$#oXoXo",
"oooo#==$&&&=&&&&&&&&$=&===#oXooo",
"oooo#=&&&&&&&$&&&&$&&&&&=#oooXoo",
"ooooo =&&&&#&:$&&$:&#&&&=#oooooo",
"ooooo ==&&$:#::$$::#:$&=#ooooooo",
"oooooX &=#$::::::::::$#=#ooooooo",
"oo+++X+$#:$@-::::::-@$:#$+++++oo",
"XXX....##:$-@@::::@@-$:#XXXXXXXX",
"ooXXoo#==#-:<;@::@;<:-#=#oXooooX",
"oooXooo &&#:< :::: <:#& ooXooooX",
"ooooXooo$$ -::::::::- $oooXooooX",
"oooooooo+O* :-::::-: *OoooXooooX",
"ooooooooO*>* #:--:# *>*Oo+XooooX",
"oooooo++ >>*%@OOOO@%*>> o+.ooo+X",
"XX.....O>*>&<%O##O%<&>*>O+.o+++X",
"ooooXXO&>>>$,*%OO%*,$>>>&O...XXX",
"oooooXO &&>>**%OO%**>>&& Ooooooo",
"ooooXoo# $$&<*%OO%*<&$$ #oXooooo",
"oooooooX#- $,@%OO%@,$ -#oooooooo",
"oooooooXo ; @*%OO%*@ ; ooooooooo",
"oooooooXo ;,;O*OO*O;,; ooooooooo",
"oooooo+.oo@,,; OO ;,,@+ooooooooo",
"ooo++++.++ OO o  o OO +++++ooooo",
"XXX.....XXX  X.....  .XXX.....XX"
};
