/* XPM */
static char *_a44b35baed54c5b830c5ce3802edea5tBqz3JZEfVo7OclJ[] = {
/* columns rows colors chars-per-pixel */
"32 32 10 1 ",
"  c #306D05",
". c #317105",
"X c #337504",
"o c #337803",
"O c #357B05",
"+ c #196F30",
"@ c #1A7231",
"# c #1B7735",
"$ c #1D7C37",
"% c #1E7F38",
/* pixels */
"XXOOOO@@@@@+++@oooo@@@@@@@@XXXXX",
"XoOOO@@@#####+@@@@++@@@@@@XXXXXX",
"Xooo@@++####++@#XXXX@@@@##@@OOOO",
"ooooooo###oooo#XXXX@@@+@##@..OOO",
"oo+ooo####@ooooXXX ooo+@###@..Oo",
"o++oo++$$@@@oooXX ooo@@$$##ooo.o",
"o+@o@@$$@@##@ooX@ooo@@@$@@@@oooX",
"+@@#$$$@@#####o@@@+++@$@@##@@ooo",
"+@@###$$#######@@@####$$####@@XX",
"@@XXX$$@@##@@#%%%%+##$$@@@#XX##X",
"@XXX@@##$$$$@%%%%++#####@@@@XX#O",
".XX@XX##@$$$$%%%@@#######@@@@X@O",
".X@XX@##@@$$$$$@%%%%+#######@+++",
".@@X@@#$$$#$$$#$$%%++##$$###@@@+",
"@@@@@##@$$$#$#$$$$@@###@$$##$@@@",
"oo@#####@$$$#####@@#####@$@@@@o@",
"o@@@+#############%%%%@####@++o+",
" @@@@+@@#########$%%%++###+++@@+",
"OOOO@@#@####%%%%#$$$@@###+@OOOO+",
"oOO@@#+@###@@%%%$$$$$$$@##@@OOOo",
"oo@@#++@####@@%$$$#$$$@@###@@Ooo",
"ooo@+@@$$##$$$@$$##$$@$$$#$$++oo",
"oo@@@@$$@@#@$$$#$##$#$$$@@#$XXXo",
"@@@#@$$@@####$$$####$$$@@###@XXX",
"@@@###$$##############$$####@@XX",
"OO+##$$@#######@#####@@@@##@@@OO",
"O++@######@++@@@@@@#@@##$$@@@OOO",
"@@#@@####oooo###@#@@@@@@@oooXOOO",
"OOOO+####@oooo#@@##@@@@#@@ooooo.",
"oOO++$#$$@@ooo+ooo@@@##$OOOoooXo",
"oo@@$++@$$@ ooooo@@####@$OOOoXoo",
"X@@$+@@@@ooo ooo++@#####@@OOXXXX"
};
