/* XPM */
static char *_bfde28e7c444a8a8d78e5cfa04d098dbnpN6cy1xNrqow6z[] = {
/* columns rows colors chars-per-pixel */
"32 32 15 1 ",
"  c #181010",
". c #1D191B",
"X c #241F21",
"o c #2A2628",
"O c #282828",
"+ c #322E30",
"@ c #600000",
"# c #A01008",
"$ c #B81810",
"% c #C83830",
"& c #F05850",
"* c #808080",
"= c gray69",
"- c #F89898",
"; c #F8F8F8",
/* pixels */
"oXXooooXXXooooo.XXooooXoXXoooooX",
"oooXoooXXoooooo.ooXoooXoooXooooX",
"oooooooXooooooo.ooooooXooooooooX",
"oooooooXoooooooXooooooXooooooooX",
"ooooooo.oooooooXooooo+.ooooooooX",
"oo++++o.+ooooooXooooo+.++++++++.",
"XXXXXXX.+++++ooXo+++++.XXXXXXXX.",
"ooXXX...XXXXXXXXXXXXX...oooooXoo",
"oooXo.ooooXXXoooooXooXoXooooXoXo",
"ooooo.ooooooXoooooXooXoXooooXooo",
"ooooo.ooooooooooooXoXooXoooooXoo",
"oooooXoooooooo     ooooXoooooooo",
"oooooXooooooo @&%$@ oooXoooooooo",
"oooooX+ooooo @-%$##@ ooXoooooooo",
"oo+++X++++++ #%$#### ++X++++++oo",
"XXX....XXXXX  #@ @#  XXXXXXXXXXX",
"ooXXoooooXXo =  ;  = oooooXooooX",
"oooXoooooXoo *=O O=* oooooXooooX",
"ooooXooooXooo *===* ooooooXooooX",
"oooooooo+Xoooo     XooooooXooooX",
"oooooooo+.oooooXooooXoooo+XooooX",
"oooooo+++.ooooo.+oooooooo+.ooo+X",
"XX.......XXXXX..++ooo+++++.o+++X",
"ooooXX.XooooXXo.XXXXXXXX.....XXX",
"oooooXXXoooXoooooooooXooXXoooooo",
"ooooXooXoooooooooooooXooooXooooo",
"oooooooXoooooooooooooXoooooooooo",
"oooooooXoooooooooooooXoooooooooo",
"oooooooXoooooooooooooXoooooooooo",
"oooooo+.ooooooooooooo.+ooooooooo",
"ooo++++.+++++oooooo++.+++++ooooo",
"XXX.....XXXXXX........XXX.....XX"
};
