/* XPM */
static char *f25ca923ad4541a8c1db6089a6315e7eiexmVLTKknskffOP[] = {
/* columns rows colors chars-per-pixel */
"32 32 8 1 ",
"  c #070707",
". c #0C0B0A",
"X c #140E0E",
"o c #151211",
"O c #1B1916",
"+ c #23201D",
"@ c #2E2A25",
"# c #3C3129",
/* pixels */
"    ..    oooooo     ooooooo    ",
" ....oo            . oooooo     ",
"  ....ooooo .oooooo ..ooo.. ++++",
"     ..ooo  .ooooooo  .... +++@@",
"  oo        ...ooooo       ++@#@",
" oooo  ...   .....    OOOO +@##@",
" .oo.  ......  ...   OO+++ @@##@",
"...o.  ........      O++++ @@##@",
" .... .....     OOOO O++++ @@##@",
"      ..       OOOOO O++++ @@##@",
" ...           OO+OO O+++@.@@##@",
"....     OOOO .OO+++.++++@.@@###",
"....  .. OOOO .OO+++.++++@.@@###",
"..     ..OOOOO.OO+++.+++@@.@@@##",
"   XXXXX.OOOOO.OO++..+++@@.@@@##",
"   XXXXX.OOOOO.OO++..+++@@ @@@@#",
"  .XXXXX OOOOO.OO++..+++@@ @@@@#",
"  .XXXXO OOOO+.OO++..+++@@ @@@@#",
"XX.XXXXO OOOO+.OO++..+++@@..@@##",
"XX.XXXXO OOOO+.OO+++.+++@@..@@##",
"XX.XXXOO OOOO+.OO+++.+++@@..@@##",
"XX.XXXOO OOOO+.OOO++.+++@@..@@##",
"XX XXXOO OOOO+.OOO++.++++@..@@#@",
"XX XXXOO OOOO+ OOO++.++++@..@@@@",
"XX XXXOO OOOO+ OOO++ +++++..@@@@",
"XX XXXOO OOOOO OOO++ +++++.+@@@@",
"XX XXXOO OOOOO OOO++ +++++.+@@@@",
"XX XXXOO OOOOX OOO++ +++++.++@@@",
"XX XXXXO OOOOX OOOOO +++++.+++++",
"XX XXXXO XOOXX XXOOO +++++.+++++",
"XX XXXXX XXXXX XXXXO +++++ +++++",
"XX XXXXX XXXXX XXXXO +++++ +++++"
};
