/* XPM */
static char *b094f88673364beba4ee0290e05c590cSQ2o6HDpU5VCaEsw[] = {
/* columns rows colors chars-per-pixel */
"32 32 17 1 ",
"  c black",
". c #1D191B",
"X c #241F21",
"o c #2A2628",
"O c #282828",
"+ c #322E30",
"@ c gray22",
"# c #684030",
"$ c #B01000",
"% c #F87030",
"& c #E83040",
"* c #C8B828",
"= c #F8A030",
"- c #C88048",
"; c #889098",
": c #D8F888",
"> c #A8C0D8",
/* pixels */
"oXXooooXXXooooo.XXooooXoXXoooooX",
"oooXoooXXoooooo.ooXoooXoooXooooX",
"oooooooXooooooo.ooooooXooooooooX",
"oooooooXoo$$$$$$ooooooXooooooooX",
"ooooooo.o$======$$oo$$.ooooooooX",
"oo++++o.+o$=======$o$=$++++++++.",
"XXXXXXX.++$$=======$==$XXXXXXXX.",
"ooXX$$$$X$=$=======$===$o#oooXoo",
"ooo ====$$==$==========$$=#oXoXo",
"oooo =====$===========$===#oXooo",
"ooo =======%========%===== ooXoo",
"oooo ======%========%====% ooooo",
"ooooo %===%==========%===#oooooo",
"oooooX %%=$%========%$=%% oooooo",
"oo+++X+$%%#%%%====%%%#%% +++++oo",
"XXX....#$%##%%%%%%%%##%$#XXXXXXX",
"ooXXoo#%%%%#%%    %%#%%%%#XooooX",
"oooXooo  $%%#      #%%$  oXooooX",
"ooooXooooX  # ==== #  ooooXooooX",
"oooooooo+ *: %====% :* oooXooooX",
"oooooooo+ ::#======#:: oo+XooooX",
"oooooo++ :: ===%=%== :* o+.ooo+X",
"XX.....O:*:#%=%%%%=%#*::O+.o+++X",
"ooooXXO&:::  %%%%%%  :::&O...XXX",
"oooooXO &&:: % %% % ::&& Ooooooo",
"ooooXoo# $$$* :# : *$$$ #oXooooo",
"oooooooX#-  @::::::@  -#oooooooo",
"oooooooXo ;;@*::::*@;; ooooooooo",
"oooooooXo ;>;O::::O;>; ooooooooo",
"oooooo+.oo@>>; :: ;>>@+ooooooooo",
"ooo++++.++ OO o  o OO +++++ooooo",
"XXX.....XXX  X.....  .XXX.....XX"
};
