/* XPM */
static char *_fd589ba44e84ea3f7d908c0d0962066hkqHofOtHdUDqfLo[] = {
/* columns rows colors chars-per-pixel */
"32 32 19 1 ",
"  c black",
". c #1D191B",
"X c #241F21",
"o c #2A2628",
"O c #282828",
"+ c #322E30",
"@ c gray22",
"# c #684030",
"$ c #B01000",
"% c #F87030",
"& c #E83040",
"* c #C8B828",
"= c #F8A030",
"- c #C88048",
"; c #889098",
": c #F0C088",
"> c #D8F888",
", c #A8C0D8",
"< c #F8F8F8",
/* pixels */
"oXXooooXXXooooo.XXooooXoXXoooooX",
"oooXoooXXoooooo.ooXoooXoooXooooX",
"oooooooXooooooo.ooooooXooooooooX",
"oooooooXooo$$$$$$oooooXooooooooX",
"ooooooo.oo$======$$oo+$ooooooooX",
"oo++++o.+oo$=======$o$=$+++++++.",
"XXXXXXX.+++$===%&%==$==$XXXXXXX.",
"ooXXX...XX$$$===&&&=$=&=$ooooXoo",
"oooXo.ooo$===$$=&&&&=&&=$oooXoXo",
"ooooo.oooo$====$=&&&&&&& oooXooo",
"ooooo.oooo$=%&&&&&&&$&&& ooooXoo",
"oooooXoo$$$$=%&&&&#&:$& oooooooo",
"oooooXo#====$$%&&$:#:: #oooooooo",
"oooooX+o#%====&&&$:::::#oooooooo",
"oo+++X+#====%&&&&$@-::: ++++++oo",
"XXX...#====&&&&#&$-@@:: XXXXXXXX",
"ooXXooo##&==&&#:$-:<;@:#ooXooooX",
"oooXooooo##&==#-$::<@::#ooXooooX",
"ooooX#####  $$$#-::::::-ooXooooX",
"ooooo ===%   #$ #-:-::#oooXooooX",
"ooooo# ====  # @@@-###ooo+XooooX",
"oooo %====%%#o >>*@ ooooo+.ooo+X",
"XX. ==%==%% XX >>&<@ +++++.o+++X",
"oooo##=%#% oX >>>$,% XXX.....XXX",
"oooo#= #% oXo *>>>>%OXooXXoooooo",
"oooo# o# ooo *>>>>&<% ooooXooooo",
"oooooooXooo &>>>>>$,% oooooooooo",
"oooooooXooo  &&&&&O*% oooooooooo",
"oooooooXoooo  OOOO*O% oooooooooo",
"oooooo+.ooooo ;,,;  % +ooooooooo",
"ooo++++.+++++ OOO o+ .+++++ooooo",
"XXX.....XXXXXX   .....XXX.....XX"
};
