/* XPM */
static char *_6996934bdd54916905076849df54fb397jl355upD7HH3EY[] = {
/* columns rows colors chars-per-pixel */
"32 32 19 1 ",
"  c black",
". c #1D191B",
"X c #241F21",
"o c #2A2628",
"O c #282828",
"+ c #322E30",
"@ c gray22",
"# c #684030",
"$ c #B01000",
"% c #F87030",
"& c #E83040",
"* c #C8B828",
"= c #F8A030",
"- c #C88048",
"; c #889098",
": c #F0C088",
"> c #D8F888",
", c #A8C0D8",
"< c #F8F8F8",
/* pixels */
"oXXooooXXXooooo.XXooooXoXXoooooX",
"oooXoooXXoooooo.ooXoooXoooXooooX",
"oooooooXooooooo.ooooooXooooooooX",
"oooooooXoooooo$$$$$$ooXooooooooX",
"ooooooo.$ooo$$======$+.ooooooooX",
"oo++++o$=$o$=======$o+.++++++++.",
"XXXXXXX$==$==%&%===$++.XXXXXXXX.",
"ooXXX.$=&=$=&&&===$$$...oooooXoo",
"oooXo.$=&&=&&&&=$$===$oXooooXoXo",
"ooooo. &&&&&&&=$====$XoXooooXooo",
"ooooo. &&&$&&&&&&&%=$ooXoooooXoo",
"oooooXo &$:&#&&&&%=$$$$Xoooooooo",
"oooooXo# ::#:$&&%$$====#oooooooo",
"oooooX+#:::::$&&&====%#Xoooooooo",
"oo+++X+ :::-@$&&&&%====#++++++oo",
"XXX.... ::@@-$&#&&&&====#XXXXXXX",
"ooXXooo#:@;<:-$:#&&==&##ooXooooX",
"oooXooo#::@<::$-#==&##ooooXooooX",
"ooooXoo-::::::-#$$$  #####XooooX",
"oooooooo#::-:-# $#   %=== XooooX",
"oooooooo+###-@@@ #  ==== #XooooX",
"oooooo+++.o @*>> o#%%====% ooo+X",
"XX.......X @<&>> +o %%==%== +++X",
"ooooXX.Xoo %,$>>> XX %#%=##..XXX",
"oooooXXXooO%>>>>* ooo %# =#ooooo",
"ooooXooXo %<&>>>>* ooX #o #ooooo",
"oooooooXo %,$>>>>>& oXoooooooooo",
"oooooooXo %*O&&&&&  oXoooooooooo",
"oooooooXo %O*OOOO  ooXoooooooooo",
"oooooo+.o %  ;,,; ooo.+ooooooooo",
"ooo++++.++ ++ OOO o++.+++++ooooo",
"XXX.....XXXXXX   .....XXX.....XX"
};
